AXIS, a gigantic coiling plant, stretches high above the clouds... At its center is a village whose people are in mortal danger because Axis is withering... it\'s sap is drying up. The people beg their gods for help... but to no avail. Compelled by a mysterious force, Kaena, a rebellious, high-spirited teenage girl will defy the High Priest and her people\'s ancestral beliefs to take the perilous journey through the Axis and discover what dark secrets lie beyond the clouds... A dying world, an evil force, a terrible secret..


Format                           : AVI
Format/Info                      : Audio Video Interleave
Format profile                   : OpenDML
File size                        : 1.57 GiB
Duration                         : 1h 31mn
Overall bit rate                 : 2 455 Kbps
Writing application              : DivX 3.2.0.0252
IDFV                             : DMF 2.0.0

Video
ID                               : 0
Format                           : MPEG-4 Visual
Format settings, BVOP            : Yes
Format settings, QPel            : No
Format settings, GMC             : No warppoints
Format settings, Matrix          : Default (H.263)
Muxing mode                      : Packed bitstream
Codec ID                         : DX50
Codec ID/Hint                    : DivX 5
Duration                         : 1h 31mn
Bit rate                         : 2 000 Kbps
Width                            : 932 pixels
Height                           : 512 pixels
Display aspect ratio             : 16:9
Frame rate                       : 23.976 fps
Color space                      : YUV
Chroma subsampling               : 4:2:0
Bit depth                        : 8 bits
Scan type                        : Progressive
Bits/(Pixel*Frame)               : 0.175
Stream size                      : 1.28 GiB (81%)
Title                            : Video 
Writing library                  : DivX 6.8.5 (UTC 2009-08-20)

Audio
ID                               : 1
Format                           : AC-3
Format/Info                      : Audio Coding 3
Mode extension                   : CM (complete main)
Codec ID                         : 2000
Duration                         : 1h 31mn
Bit rate mode                    : Constant
Bit rate                         : 448 Kbps
Channel(s)                       : 6 channels
Channel positions                : Front: L C R, Side: L R, LFE
Sampling rate                    : 48.0 KHz
Bit depth                        : 16 bits
Stream size                      : 293 MiB (18%)
Alignment                        : Split accross interleaves
Interleave, duration             : 42 ms (1.00 video frame)
Interleave, preload duration     : 500 ms
Title                            : Audio 


Kaena - The Prophecy (1080p,AC3 6Ch).avi is also available via all the most popular direct download web sites. Includingthe rest.

Here is a Direct Download Link 
http://www.fullandfree.info/movies/kaena-the-prophecy-2003-1080p-ac3-6ch/

It\'s the same file as the one from TPB. You can download it from the direct download and help seed it here if you want.